<svg width="128" height="128" viewBox="0 0 128 128" fill="none" xmlns="http://www.w3.org/2000/svg">
  <!-- 底层圆形 -->
  <circle cx="64" cy="64" r="60" fill="url(#paint0_linear)" />
  
  <!-- 药丸图标 -->
  <path d="M82 43.5C77.5817 39.0817 70.4183 39.0817 66 43.5L50 59.5C45.5817 63.9183 45.5817 71.0817 50 75.5C54.4183 79.9183 61.5817 79.9183 66 75.5L82 59.5C86.4183 55.0817 86.4183 47.9183 82 43.5Z" fill="white" fill-opacity="0.9"/>
  
  <!-- 十字形 -->
  <path d="M64 56V72" stroke="#42B883" stroke-width="4" stroke-linecap="round"/>
  <path d="M56 64H72" stroke="#42B883" stroke-width="4" stroke-linecap="round"/>
  
  <!-- 云形状 - 上部 -->
  <path d="M92 60C92 51.7157 85.2843 45 77 45C70.5195 45 65.0267 49.0442 63.0199 54.7493C61.662 53.6818 59.9027 53 58 53C54.6863 53 52 55.6863 52 59C52 59.7725 52.1326 60.5164 52.3816 61.2095C48.7351 62.3155 46 65.7866 46 69.75C46 74.5825 49.9175 78.5 54.75 78.5H87.25C92.0825 78.5 96 74.5825 96 69.75C96 65.7866 93.2649 62.3155 89.6184 61.2095C89.8674 60.5164 90 59.7725 90 59C90 58.3207 89.9192 57.6603 89.7677 57.0302C91.1595 55.0386 92 52.6157 92 50" stroke="white" stroke-width="2.5" stroke-linecap="round"/>
  
  <!-- 渐变定义 -->
  <defs>
    <linearGradient id="paint0_linear" x1="20" y1="20" x2="108" y2="108" gradientUnits="userSpaceOnUse">
      <stop offset="0" stop-color="#42D392"/>
      <stop offset="1" stop-color="#47C1FF"/>
    </linearGradient>
  </defs>
</svg> 